<mxfile host="app.diagrams.net" modified="2022-08-30T22:26:09.992Z" agent="5.0 (Windows NT 10.0; Win64; x64) AppleWebKit/537.36 (KHTML, like Gecko) Chrome/104.0.0.0 Safari/537.36" etag="E4ICqdedg4wt7NYC-rUH" version="20.2.7" type="github">
  <diagram id="C5RBs43oDa-KdzZeNtuy" name="Page-1">
    <mxGraphModel dx="2858" dy="2258" grid="1" gridSize="10" guides="1" tooltips="1" connect="1" arrows="1" fold="1" page="1" pageScale="1" pageWidth="827" pageHeight="1169" math="0" shadow="0">
      <root>
        <mxCell id="WIyWlLk6GJQsqaUBKTNV-0" />
        <mxCell id="WIyWlLk6GJQsqaUBKTNV-1" parent="WIyWlLk6GJQsqaUBKTNV-0" />
        <mxCell id="9DcamnH5n7o02ZqppOdK-2" value="1" style="edgeStyle=orthogonalEdgeStyle;rounded=0;orthogonalLoop=1;jettySize=auto;html=1;" edge="1" parent="WIyWlLk6GJQsqaUBKTNV-1" source="9DcamnH5n7o02ZqppOdK-0" target="9DcamnH5n7o02ZqppOdK-1">
          <mxGeometry relative="1" as="geometry" />
        </mxCell>
        <mxCell id="9DcamnH5n7o02ZqppOdK-6" value="1" style="edgeStyle=orthogonalEdgeStyle;rounded=0;orthogonalLoop=1;jettySize=auto;html=1;" edge="1" parent="WIyWlLk6GJQsqaUBKTNV-1" source="9DcamnH5n7o02ZqppOdK-0" target="9DcamnH5n7o02ZqppOdK-5">
          <mxGeometry relative="1" as="geometry" />
        </mxCell>
        <mxCell id="9DcamnH5n7o02ZqppOdK-10" value="1" style="edgeStyle=orthogonalEdgeStyle;rounded=0;orthogonalLoop=1;jettySize=auto;html=1;" edge="1" parent="WIyWlLk6GJQsqaUBKTNV-1" source="9DcamnH5n7o02ZqppOdK-0" target="9DcamnH5n7o02ZqppOdK-9">
          <mxGeometry relative="1" as="geometry" />
        </mxCell>
        <mxCell id="9DcamnH5n7o02ZqppOdK-26" value="1" style="edgeStyle=orthogonalEdgeStyle;rounded=0;orthogonalLoop=1;jettySize=auto;html=1;" edge="1" parent="WIyWlLk6GJQsqaUBKTNV-1" source="9DcamnH5n7o02ZqppOdK-0" target="9DcamnH5n7o02ZqppOdK-25">
          <mxGeometry relative="1" as="geometry" />
        </mxCell>
        <mxCell id="9DcamnH5n7o02ZqppOdK-0" value="Bar" style="rounded=0;whiteSpace=wrap;html=1;" vertex="1" parent="WIyWlLk6GJQsqaUBKTNV-1">
          <mxGeometry x="-170" y="120" width="120" height="110" as="geometry" />
        </mxCell>
        <mxCell id="9DcamnH5n7o02ZqppOdK-4" value="n" style="edgeStyle=orthogonalEdgeStyle;rounded=0;orthogonalLoop=1;jettySize=auto;html=1;" edge="1" parent="WIyWlLk6GJQsqaUBKTNV-1" source="9DcamnH5n7o02ZqppOdK-1" target="9DcamnH5n7o02ZqppOdK-3">
          <mxGeometry relative="1" as="geometry" />
        </mxCell>
        <mxCell id="9DcamnH5n7o02ZqppOdK-1" value="Tiene" style="rhombus;whiteSpace=wrap;html=1;rounded=0;" vertex="1" parent="WIyWlLk6GJQsqaUBKTNV-1">
          <mxGeometry x="60" y="135" width="80" height="80" as="geometry" />
        </mxCell>
        <mxCell id="9DcamnH5n7o02ZqppOdK-3" value="Empleado" style="whiteSpace=wrap;html=1;rounded=0;" vertex="1" parent="WIyWlLk6GJQsqaUBKTNV-1">
          <mxGeometry x="260" y="145" width="120" height="60" as="geometry" />
        </mxCell>
        <mxCell id="9DcamnH5n7o02ZqppOdK-8" value="n" style="edgeStyle=orthogonalEdgeStyle;rounded=0;orthogonalLoop=1;jettySize=auto;html=1;" edge="1" parent="WIyWlLk6GJQsqaUBKTNV-1" source="9DcamnH5n7o02ZqppOdK-5" target="9DcamnH5n7o02ZqppOdK-7">
          <mxGeometry relative="1" as="geometry" />
        </mxCell>
        <mxCell id="9DcamnH5n7o02ZqppOdK-5" value="Tiene" style="rhombus;whiteSpace=wrap;html=1;rounded=0;" vertex="1" parent="WIyWlLk6GJQsqaUBKTNV-1">
          <mxGeometry x="-350" y="135" width="80" height="80" as="geometry" />
        </mxCell>
        <mxCell id="9DcamnH5n7o02ZqppOdK-7" value="Bebida" style="whiteSpace=wrap;html=1;rounded=0;" vertex="1" parent="WIyWlLk6GJQsqaUBKTNV-1">
          <mxGeometry x="-530" y="145" width="120" height="60" as="geometry" />
        </mxCell>
        <mxCell id="9DcamnH5n7o02ZqppOdK-12" value="n" style="edgeStyle=orthogonalEdgeStyle;rounded=0;orthogonalLoop=1;jettySize=auto;html=1;" edge="1" parent="WIyWlLk6GJQsqaUBKTNV-1" source="9DcamnH5n7o02ZqppOdK-9" target="9DcamnH5n7o02ZqppOdK-11">
          <mxGeometry relative="1" as="geometry" />
        </mxCell>
        <mxCell id="9DcamnH5n7o02ZqppOdK-9" value="Tiene" style="rhombus;whiteSpace=wrap;html=1;rounded=0;" vertex="1" parent="WIyWlLk6GJQsqaUBKTNV-1">
          <mxGeometry x="-150" y="325" width="80" height="80" as="geometry" />
        </mxCell>
        <mxCell id="9DcamnH5n7o02ZqppOdK-18" value="1" style="edgeStyle=orthogonalEdgeStyle;rounded=0;orthogonalLoop=1;jettySize=auto;html=1;" edge="1" parent="WIyWlLk6GJQsqaUBKTNV-1" source="9DcamnH5n7o02ZqppOdK-11" target="9DcamnH5n7o02ZqppOdK-17">
          <mxGeometry relative="1" as="geometry" />
        </mxCell>
        <mxCell id="9DcamnH5n7o02ZqppOdK-11" value="Proveedor" style="whiteSpace=wrap;html=1;rounded=0;" vertex="1" parent="WIyWlLk6GJQsqaUBKTNV-1">
          <mxGeometry x="-170" y="495" width="120" height="60" as="geometry" />
        </mxCell>
        <mxCell id="9DcamnH5n7o02ZqppOdK-20" value="n" style="edgeStyle=orthogonalEdgeStyle;rounded=0;orthogonalLoop=1;jettySize=auto;html=1;" edge="1" parent="WIyWlLk6GJQsqaUBKTNV-1" source="9DcamnH5n7o02ZqppOdK-17" target="9DcamnH5n7o02ZqppOdK-19">
          <mxGeometry relative="1" as="geometry" />
        </mxCell>
        <mxCell id="9DcamnH5n7o02ZqppOdK-17" value="Tiene" style="rhombus;whiteSpace=wrap;html=1;rounded=0;" vertex="1" parent="WIyWlLk6GJQsqaUBKTNV-1">
          <mxGeometry x="50" y="485" width="80" height="80" as="geometry" />
        </mxCell>
        <mxCell id="9DcamnH5n7o02ZqppOdK-22" value="n" style="edgeStyle=orthogonalEdgeStyle;rounded=0;orthogonalLoop=1;jettySize=auto;html=1;" edge="1" parent="WIyWlLk6GJQsqaUBKTNV-1" source="9DcamnH5n7o02ZqppOdK-19" target="9DcamnH5n7o02ZqppOdK-21">
          <mxGeometry relative="1" as="geometry" />
        </mxCell>
        <mxCell id="9DcamnH5n7o02ZqppOdK-19" value="Factura" style="whiteSpace=wrap;html=1;rounded=0;" vertex="1" parent="WIyWlLk6GJQsqaUBKTNV-1">
          <mxGeometry x="30" y="655" width="120" height="60" as="geometry" />
        </mxCell>
        <mxCell id="9DcamnH5n7o02ZqppOdK-24" value="1" style="edgeStyle=orthogonalEdgeStyle;rounded=0;orthogonalLoop=1;jettySize=auto;html=1;" edge="1" parent="WIyWlLk6GJQsqaUBKTNV-1" source="9DcamnH5n7o02ZqppOdK-21">
          <mxGeometry relative="1" as="geometry">
            <mxPoint x="-172" y="210" as="targetPoint" />
            <Array as="points">
              <mxPoint x="290" y="770" />
              <mxPoint x="-260" y="770" />
              <mxPoint x="-260" y="210" />
              <mxPoint x="-172" y="210" />
            </Array>
          </mxGeometry>
        </mxCell>
        <mxCell id="9DcamnH5n7o02ZqppOdK-21" value="Tiene" style="rhombus;whiteSpace=wrap;html=1;rounded=0;" vertex="1" parent="WIyWlLk6GJQsqaUBKTNV-1">
          <mxGeometry x="250" y="645" width="80" height="80" as="geometry" />
        </mxCell>
        <mxCell id="9DcamnH5n7o02ZqppOdK-28" value="n" style="edgeStyle=orthogonalEdgeStyle;rounded=0;orthogonalLoop=1;jettySize=auto;html=1;" edge="1" parent="WIyWlLk6GJQsqaUBKTNV-1" source="9DcamnH5n7o02ZqppOdK-25" target="9DcamnH5n7o02ZqppOdK-27">
          <mxGeometry relative="1" as="geometry" />
        </mxCell>
        <mxCell id="9DcamnH5n7o02ZqppOdK-25" value="Tiene" style="rhombus;whiteSpace=wrap;html=1;rounded=0;" vertex="1" parent="WIyWlLk6GJQsqaUBKTNV-1">
          <mxGeometry x="-150" y="-55" width="80" height="80" as="geometry" />
        </mxCell>
        <mxCell id="9DcamnH5n7o02ZqppOdK-27" value="Comida" style="whiteSpace=wrap;html=1;rounded=0;" vertex="1" parent="WIyWlLk6GJQsqaUBKTNV-1">
          <mxGeometry x="-10" y="-45" width="120" height="60" as="geometry" />
        </mxCell>
      </root>
    </mxGraphModel>
  </diagram>
</mxfile>
